<svg xmlns="http://www.w3.org/2000/svg" width="226" height="46" viewBox="0 0 226 46"><g fill="none" fill-rule="evenodd"><path fill="#0086F2" d="M7.738 25.34c-2.278 0-4.76-.714-6.834-2.142-.442-.238-.782-.748-.782-1.428 0-.918.714-1.666 1.666-1.666.34 0 .646.102.884.238 1.734 1.156 3.536 1.734 5.168 1.734 1.768 0 2.788-.748 2.788-1.938v-.068c0-1.394-1.904-1.87-4.012-2.516-2.652-.748-5.61-1.836-5.61-5.27v-.068c0-3.4 2.822-5.474 6.392-5.474 1.904 0 3.91.544 5.644 1.462.578.306.986.85.986 1.564 0 .952-.748 1.666-1.7 1.666-.34 0-.544-.068-.816-.204-1.462-.748-2.958-1.224-4.216-1.224-1.598 0-2.516.748-2.516 1.768v.068c0 1.326 1.938 1.87 4.046 2.55 2.618.816 5.576 2.006 5.576 5.236v.068c0 3.774-2.924 5.644-6.664 5.644zm12.168-10.574h9.214c-.272-2.652-1.836-4.726-4.556-4.726-2.516 0-4.284 1.938-4.658 4.726zM31.5 23.028c-1.632 1.462-3.672 2.38-6.46 2.38-5.202 0-9.214-3.774-9.214-9.316v-.068c0-5.134 3.638-9.35 8.772-9.35 5.712 0 8.534 4.692 8.534 8.84 0 1.156-.884 1.972-1.938 1.972H19.94c.442 2.924 2.516 4.556 5.168 4.556 1.734 0 3.094-.612 4.25-1.564.306-.238.578-.374 1.054-.374.918 0 1.632.714 1.632 1.666 0 .51-.238.952-.544 1.258zm4.28.102V2.05c0-1.122.883-2.04 2.04-2.04 1.155 0 2.073.918 2.073 2.04v21.08c0 1.156-.918 2.04-2.074 2.04a2.024 2.024 0 0 1-2.04-2.04zm10.773-8.364h9.214c-.272-2.652-1.836-4.726-4.556-4.726-2.516 0-4.284 1.938-4.658 4.726zm11.594 8.262c-1.632 1.462-3.672 2.38-6.46 2.38-5.202 0-9.214-3.774-9.214-9.316v-.068c0-5.134 3.638-9.35 8.772-9.35 5.712 0 8.534 4.692 8.534 8.84 0 1.156-.884 1.972-1.938 1.972H46.587c.442 2.924 2.516 4.556 5.168 4.556 1.734 0 3.094-.612 4.25-1.564.306-.238.578-.374 1.054-.374.918 0 1.632.714 1.632 1.666 0 .51-.238.952-.544 1.258zm10.196 2.312c-2.278 0-4.76-.714-6.834-2.142-.442-.238-.782-.748-.782-1.428 0-.918.714-1.666 1.666-1.666.34 0 .646.102.884.238 1.734 1.156 3.536 1.734 5.168 1.734 1.768 0 2.788-.748 2.788-1.938v-.068c0-1.394-1.904-1.87-4.012-2.516-2.652-.748-5.61-1.836-5.61-5.27v-.068c0-3.4 2.822-5.474 6.392-5.474 1.904 0 3.91.544 5.644 1.462.578.306.986.85.986 1.564 0 .952-.748 1.666-1.7 1.666-.34 0-.544-.068-.816-.204-1.462-.748-2.958-1.224-4.216-1.224-1.598 0-2.516.748-2.516 1.768v.068c0 1.326 1.938 1.87 4.046 2.55 2.618.816 5.576 2.006 5.576 5.236v.068c0 3.774-2.924 5.644-6.664 5.644zm14.752-.034c-3.026 0-5.168-1.326-5.168-5.27v-9.452h-.68a1.756 1.756 0 0 1-1.768-1.768c0-.986.782-1.768 1.768-1.768h.68v-3.06c0-1.122.918-2.04 2.074-2.04 1.122 0 2.04.918 2.04 2.04v3.06h3.23c.986 0 1.802.782 1.802 1.768s-.816 1.768-1.802 1.768h-3.23v8.806c0 1.598.816 2.244 2.21 2.244.476 0 .884-.102 1.02-.102.918 0 1.734.748 1.734 1.7 0 .748-.51 1.36-1.088 1.598a8.184 8.184 0 0 1-2.822.476zm6.081-22.882V2.22c0-1.224 1.02-2.006 2.346-2.006s2.346.782 2.346 2.006v.204c0 1.224-1.02 2.04-2.346 2.04s-2.346-.816-2.346-2.04zm.306 20.706V8.918c0-1.156.884-2.074 2.04-2.074a2.06 2.06 0 0 1 2.074 2.074V23.13c0 1.156-.918 2.04-2.074 2.04a2.024 2.024 0 0 1-2.04-2.04z"/><path fill="#5C5C5C" d="M.17 42.194v-7.488c0-.455.351-.806.806-.806h2.587c2.86 0 4.836 1.963 4.836 4.524v.026c0 2.561-1.976 4.55-4.836 4.55H.976a.794.794 0 0 1-.806-.806zm1.599-.65h1.794c1.911 0 3.159-1.287 3.159-3.068v-.026c0-1.781-1.248-3.094-3.159-3.094H1.769v6.188zm7.668-7.176v-.078c0-.468.39-.767.897-.767s.897.299.897.767v.078c0 .468-.39.78-.897.78s-.897-.312-.897-.78zm.117 7.917v-5.434c0-.442.338-.793.78-.793s.793.351.793.793v5.434c0 .442-.35.78-.793.78a.774.774 0 0 1-.78-.78zm5.992 2.821a5.93 5.93 0 0 1-2.652-.611c-.273-.104-.442-.325-.442-.624a.663.663 0 0 1 .949-.585 4.197 4.197 0 0 0 2.106.546c1.404 0 2.17-.728 2.17-2.106v-.533c-.571.741-1.286 1.261-2.417 1.261-1.612 0-3.12-1.196-3.12-3.211v-.026c0-2.028 1.52-3.224 3.12-3.224 1.157 0 1.872.533 2.405 1.17v-.325c0-.429.35-.78.78-.78.442 0 .793.351.793.793v4.745c0 1.157-.3 2.015-.871 2.587-.624.624-1.586.923-2.821.923zm.13-3.991c1.092 0 2.015-.767 2.015-1.885v-.026c0-1.118-.923-1.885-2.015-1.885s-1.95.754-1.95 1.885v.026c0 1.118.87 1.885 1.95 1.885zm4.821-6.747v-.078c0-.468.39-.767.897-.767s.897.299.897.767v.078c0 .468-.39.78-.897.78s-.897-.312-.897-.78zm.117 7.917v-5.434c0-.442.338-.793.78-.793s.793.351.793.793v5.434c0 .442-.35.78-.793.78a.774.774 0 0 1-.78-.78zm5.237.832c-1.157 0-1.976-.507-1.976-2.015v-3.614h-.26a.671.671 0 0 1-.676-.676c0-.377.3-.676.676-.676h.26v-1.17c0-.429.351-.78.793-.78.43 0 .78.351.78.78v1.17h1.235c.377 0 .69.299.69.676a.682.682 0 0 1-.69.676h-1.235v3.367c0 .611.312.858.845.858.182 0 .338-.039.39-.039.351 0 .663.286.663.65 0 .286-.195.52-.416.611a3.13 3.13 0 0 1-1.079.182zm4.328.026c-1.287 0-2.431-.741-2.431-2.119v-.026c0-1.482 1.157-2.21 2.834-2.21.767 0 1.313.117 1.846.286v-.169c0-.975-.598-1.495-1.703-1.495-.598 0-1.092.104-1.521.273a.883.883 0 0 1-.247.039.655.655 0 0 1-.663-.65c0-.286.195-.533.429-.624a5.884 5.884 0 0 1 2.21-.403c1.027 0 1.794.273 2.275.767.507.494.74 1.222.74 2.119v3.38a.75.75 0 0 1-.766.754c-.455 0-.767-.312-.767-.663v-.26c-.468.559-1.183 1.001-2.236 1.001zm.442-1.144c1.04 0 1.833-.598 1.833-1.469v-.468a4.36 4.36 0 0 0-1.56-.273c-1.014 0-1.612.429-1.612 1.144v.026c0 .663.585 1.04 1.339 1.04zm4.613.286v-8.06c0-.429.338-.78.78-.78s.793.351.793.78v8.06c0 .442-.35.78-.793.78a.774.774 0 0 1-.78-.78zm6.328 0v-7.631c0-.442.351-.806.806-.806h.169c.351 0 .585.182.741.429l2.756 4.316 2.769-4.329c.169-.273.403-.416.728-.416h.169c.455 0 .806.364.806.806v7.618a.79.79 0 0 1-.806.793.805.805 0 0 1-.793-.793v-5.46l-2.223 3.341c-.169.26-.377.416-.676.416-.286 0-.494-.156-.663-.416l-2.21-3.315v5.447c0 .442-.351.78-.793.78a.766.766 0 0 1-.78-.78zm12.387.858c-1.287 0-2.43-.741-2.43-2.119v-.026c0-1.482 1.156-2.21 2.833-2.21.767 0 1.313.117 1.846.286v-.169c0-.975-.598-1.495-1.703-1.495-.598 0-1.092.104-1.52.273a.883.883 0 0 1-.248.039.655.655 0 0 1-.663-.65c0-.286.195-.533.43-.624a5.884 5.884 0 0 1 2.21-.403c1.026 0 1.793.273 2.274.767.507.494.741 1.222.741 2.119v3.38a.75.75 0 0 1-.767.754c-.455 0-.767-.312-.767-.663v-.26c-.468.559-1.183 1.001-2.236 1.001zm.442-1.144c1.04 0 1.833-.598 1.833-1.469v-.468a4.36 4.36 0 0 0-1.56-.273c-1.014 0-1.612.429-1.612 1.144v.026c0 .663.585 1.04 1.34 1.04zm4.523.286v-5.434c0-.442.338-.793.78-.793s.793.351.793.793v.702c.364-.858 1.04-1.508 1.729-1.508.494 0 .78.325.78.78a.738.738 0 0 1-.624.754c-1.118.195-1.885 1.053-1.885 2.678v2.028c0 .429-.351.78-.793.78a.774.774 0 0 1-.78-.78zm4.678 0v-8.06c0-.429.338-.78.78-.78s.793.351.793.78v5.07l2.951-2.899c.208-.208.403-.338.676-.338.416 0 .69.338.69.715 0 .26-.13.455-.352.663l-1.82 1.677 2.08 2.717c.143.195.208.338.208.52 0 .429-.338.715-.74.715-.313 0-.495-.104-.69-.351l-1.963-2.613-1.04.988v1.196c0 .442-.35.78-.793.78a.774.774 0 0 1-.78-.78zm7.837-3.198h3.523c-.104-1.014-.702-1.807-1.742-1.807-.962 0-1.638.741-1.78 1.807zm4.433 3.159c-.624.559-1.404.91-2.47.91-1.989 0-3.523-1.443-3.523-3.562v-.026c0-1.963 1.391-3.575 3.354-3.575 2.184 0 3.263 1.794 3.263 3.38a.736.736 0 0 1-.74.754h-4.304c.17 1.118.962 1.742 1.976 1.742.663 0 1.183-.234 1.625-.598a.586.586 0 0 1 .403-.143.62.62 0 0 1 .624.637.687.687 0 0 1-.208.481zm3.847.871c-1.157 0-1.976-.507-1.976-2.015v-3.614h-.26a.671.671 0 0 1-.676-.676c0-.377.299-.676.676-.676h.26v-1.17c0-.429.35-.78.793-.78.429 0 .78.351.78.78v1.17h1.235c.377 0 .689.299.689.676a.682.682 0 0 1-.69.676h-1.234v3.367c0 .611.312.858.845.858.182 0 .338-.039.39-.039.35 0 .663.286.663.65 0 .286-.195.52-.416.611a3.13 3.13 0 0 1-1.08.182zm2.325-8.749v-.078c0-.468.39-.767.897-.767s.897.299.897.767v.078c0 .468-.39.78-.897.78s-.897-.312-.897-.78zm.117 7.917v-5.434c0-.442.338-.793.78-.793s.793.351.793.793v5.434c0 .442-.35.78-.793.78a.774.774 0 0 1-.78-.78zm2.937 0v-5.434c0-.442.338-.793.78-.793s.793.351.793.793v.338c.442-.637 1.079-1.196 2.145-1.196 1.547 0 2.444 1.04 2.444 2.626v3.666c0 .442-.338.78-.78.78a.777.777 0 0 1-.793-.78V39.1c0-1.066-.533-1.677-1.47-1.677-.91 0-1.546.637-1.546 1.703v3.159c0 .442-.351.78-.793.78a.774.774 0 0 1-.78-.78zm10.424 2.821a5.93 5.93 0 0 1-2.652-.611c-.273-.104-.442-.325-.442-.624a.663.663 0 0 1 .949-.585 4.197 4.197 0 0 0 2.106.546c1.404 0 2.171-.728 2.171-2.106v-.533c-.572.741-1.287 1.261-2.418 1.261-1.612 0-3.12-1.196-3.12-3.211v-.026c0-2.028 1.521-3.224 3.12-3.224 1.157 0 1.872.533 2.405 1.17v-.325c0-.429.351-.78.78-.78.442 0 .793.351.793.793v4.745c0 1.157-.299 2.015-.871 2.587-.624.624-1.586.923-2.821.923zm.13-3.991c1.092 0 2.015-.767 2.015-1.885v-.026c0-1.118-.923-1.885-2.015-1.885s-1.95.754-1.95 1.885v.026c0 1.118.871 1.885 1.95 1.885zm14.869 2.015c-.234 0-.39-.078-.56-.247l-.948-.962c-.767.741-1.69 1.209-2.808 1.209-1.703 0-2.977-1.027-2.977-2.6v-.026c0-1.17.689-2.015 1.937-2.548-.52-.663-.754-1.235-.754-1.898v-.026c0-1.222.988-2.288 2.613-2.288 1.443 0 2.418.975 2.418 2.197v.026c0 1.196-.793 1.911-1.99 2.366l1.548 1.573c.273-.39.52-.832.754-1.3a.678.678 0 0 1 .598-.377c.377 0 .689.312.689.676a.828.828 0 0 1-.091.351 15.033 15.033 0 0 1-.988 1.599l1.014 1.014c.156.156.247.312.247.546a.694.694 0 0 1-.702.715zm-3.926-5.655c.936-.338 1.43-.754 1.43-1.417v-.026c0-.611-.43-1.027-1.027-1.027-.65 0-1.092.455-1.092 1.092v.026c0 .455.182.793.689 1.352zm-.234 4.329c.637 0 1.209-.312 1.729-.806l-2.028-2.067c-.858.377-1.222.936-1.222 1.521v.026c0 .767.637 1.326 1.52 1.326zm11.228.663l-2.69-7.54a.837.837 0 0 1-.066-.312c0-.442.377-.78.82-.78.39 0 .688.247.792.585l2.093 6.253 2.054-6.227c.13-.377.403-.637.806-.637h.117c.403 0 .69.26.806.637l2.054 6.227 2.093-6.266c.117-.325.39-.572.78-.572.43 0 .793.338.793.767a.917.917 0 0 1-.078.325l-2.69 7.54c-.144.403-.443.663-.833.663h-.156c-.39 0-.676-.247-.819-.663l-2.028-5.941-2.028 5.941c-.143.416-.442.663-.832.663h-.156c-.39 0-.676-.247-.832-.663zm11.803-3.38h3.523c-.104-1.014-.702-1.807-1.742-1.807-.962 0-1.638.741-1.781 1.807zm4.433 3.159c-.624.559-1.404.91-2.47.91-1.99 0-3.523-1.443-3.523-3.562v-.026c0-1.963 1.39-3.575 3.354-3.575 2.184 0 3.263 1.794 3.263 3.38a.736.736 0 0 1-.741.754h-4.303c.169 1.118.962 1.742 1.976 1.742.663 0 1.183-.234 1.625-.598a.586.586 0 0 1 .403-.143.62.62 0 0 1 .624.637.687.687 0 0 1-.208.481zm1.545.039v-8.06c0-.442.338-.78.78-.78s.793.338.793.78v3.055c.507-.715 1.222-1.287 2.34-1.287 1.612 0 3.185 1.274 3.185 3.562v.026c0 2.275-1.56 3.562-3.185 3.562-1.144 0-1.859-.572-2.34-1.209v.351c0 .429-.35.78-.793.78a.782.782 0 0 1-.78-.78zm3.536-.507c1.08 0 1.963-.845 1.963-2.197v-.026c0-1.326-.897-2.197-1.963-2.197s-2.002.884-2.002 2.197v.026c0 1.313.936 2.197 2.002 2.197zm7.888.416v-7.488c0-.455.351-.806.806-.806h2.587c2.86 0 4.836 1.963 4.836 4.524v.026c0 2.561-1.976 4.55-4.836 4.55h-2.587a.794.794 0 0 1-.806-.806zm1.599-.65h1.794c1.911 0 3.159-1.287 3.159-3.068v-.026c0-1.781-1.248-3.094-3.159-3.094h-1.794v6.188zm8.877-2.457h3.523c-.104-1.014-.702-1.807-1.742-1.807-.962 0-1.638.741-1.78 1.807zm4.433 3.159c-.624.559-1.404.91-2.47.91-1.989 0-3.523-1.443-3.523-3.562v-.026c0-1.963 1.391-3.575 3.354-3.575 2.184 0 3.263 1.794 3.263 3.38a.736.736 0 0 1-.74.754h-4.304c.17 1.118.962 1.742 1.976 1.742.663 0 1.183-.234 1.625-.598a.586.586 0 0 1 .403-.143.62.62 0 0 1 .624.637.687.687 0 0 1-.208.481zm5.017.195c-.182.403-.468.689-.897.689h-.078c-.43 0-.715-.273-.897-.689l-2.288-5.239c-.04-.117-.091-.247-.091-.39 0-.39.35-.754.78-.754.429 0 .65.247.78.572l1.768 4.55 1.794-4.576c.117-.273.325-.546.74-.546a.75.75 0 0 1 .768.754.943.943 0 0 1-.091.377l-2.288 5.252zm4.067-3.354h3.523c-.104-1.014-.702-1.807-1.742-1.807-.962 0-1.638.741-1.78 1.807zm4.433 3.159c-.624.559-1.404.91-2.47.91-1.989 0-3.523-1.443-3.523-3.562v-.026c0-1.963 1.391-3.575 3.354-3.575 2.184 0 3.263 1.794 3.263 3.38a.736.736 0 0 1-.74.754h-4.304c.17 1.118.962 1.742 1.976 1.742.663 0 1.183-.234 1.625-.598a.586.586 0 0 1 .403-.143.62.62 0 0 1 .624.637.687.687 0 0 1-.208.481zm1.636.039v-8.06c0-.429.338-.78.78-.78s.793.351.793.78v8.06c0 .442-.35.78-.793.78a.774.774 0 0 1-.78-.78zm6.2.871c-2.093 0-3.64-1.599-3.64-3.549v-.026c0-1.963 1.56-3.588 3.666-3.588s3.653 1.599 3.653 3.562v.026c0 1.95-1.56 3.575-3.68 3.575zm.026-1.378c1.274 0 2.08-.988 2.08-2.171v-.026c0-1.209-.871-2.21-2.106-2.21-1.261 0-2.067.988-2.067 2.184v.026c0 1.196.87 2.197 2.093 2.197zm4.561 2.587v-7.514c0-.442.338-.793.78-.793s.793.351.793.793v.429c.507-.715 1.222-1.287 2.34-1.287 1.612 0 3.185 1.274 3.185 3.562v.026c0 2.275-1.56 3.562-3.185 3.562-1.144 0-1.859-.572-2.34-1.209v2.431c0 .442-.35.78-.793.78a.774.774 0 0 1-.78-.78zm3.536-2.587c1.08 0 1.963-.845 1.963-2.197v-.026c0-1.326-.897-2.197-1.963-2.197s-2.002.884-2.002 2.197v.026c0 1.313.936 2.197 2.002 2.197zm4.497.507v-5.434c0-.442.338-.793.78-.793s.793.351.793.793v.325c.442-.611 1.04-1.183 2.093-1.183.988 0 1.69.481 2.054 1.209.546-.728 1.274-1.209 2.314-1.209 1.495 0 2.405.949 2.405 2.626v3.666c0 .442-.338.78-.78.78a.777.777 0 0 1-.793-.78V39.1c0-1.092-.507-1.677-1.391-1.677-.858 0-1.47.598-1.47 1.703v3.159c0 .442-.35.78-.78.78a.777.777 0 0 1-.792-.78v-3.198c0-1.066-.52-1.664-1.391-1.664s-1.47.65-1.47 1.703v3.159c0 .442-.35.78-.792.78a.774.774 0 0 1-.78-.78zm12.842-3.198h3.523c-.104-1.014-.702-1.807-1.742-1.807-.962 0-1.638.741-1.781 1.807zm4.433 3.159c-.624.559-1.404.91-2.47.91-1.989 0-3.523-1.443-3.523-3.562v-.026c0-1.963 1.391-3.575 3.354-3.575 2.184 0 3.263 1.794 3.263 3.38a.736.736 0 0 1-.741.754h-4.303c.169 1.118.962 1.742 1.976 1.742.663 0 1.183-.234 1.625-.598a.586.586 0 0 1 .403-.143.62.62 0 0 1 .624.637.687.687 0 0 1-.208.481zm1.545.039v-5.434c0-.442.338-.793.78-.793s.793.351.793.793v.338c.442-.637 1.08-1.196 2.145-1.196 1.547 0 2.444 1.04 2.444 2.626v3.666c0 .442-.338.78-.78.78a.777.777 0 0 1-.793-.78V39.1c0-1.066-.533-1.677-1.469-1.677-.91 0-1.547.637-1.547 1.703v3.159c0 .442-.35.78-.793.78a.774.774 0 0 1-.78-.78zm9.67.832c-1.156 0-1.975-.507-1.975-2.015v-3.614h-.26a.671.671 0 0 1-.676-.676c0-.377.299-.676.676-.676h.26v-1.17c0-.429.35-.78.793-.78.429 0 .78.351.78.78v1.17h1.235c.377 0 .689.299.689.676a.682.682 0 0 1-.69.676h-1.234v3.367c0 .611.312.858.845.858.182 0 .338-.039.39-.039.35 0 .663.286.663.65 0 .286-.195.52-.416.611a3.13 3.13 0 0 1-1.08.182z"/></g></svg>
