<svg xmlns="http://www.w3.org/2000/svg" width="222" height="53" viewBox="0 0 222 53"><defs><linearGradient id="a" x1="50%" x2="50%" y1="1.651%" y2="97.241%"><stop offset="0%" stop-color="#FF55DA"/><stop offset="100%" stop-color="#52CFFF"/></linearGradient></defs><g fill="none" fill-rule="evenodd"><g transform="translate(6 3)"><ellipse cx="23.579" cy="23.552" fill="#FFF" fill-opacity=".095" stroke="url(#a)" stroke-width="4.32" rx="23.289" ry="23.441"/><path fill="#0086F2" d="M24.688 20.782c-4.454-1.206-6.033-2.09-6.033-3.387V17.3c0-1.642 2.206-2.882 5.133-2.882 2.336.06 4.6.807 6.498 2.144.47.329 1.056.457 1.623.355a2.137 2.137 0 0 0 1.39-.897l.572-.843a2.073 2.073 0 0 0-.555-2.879 17.267 17.267 0 0 0-9.528-3.004c-6.05 0-10.442 3.387-10.442 8.053v.092c0 5.534 5.492 7.068 9.908 8.304l.227.061c4.271 1.192 6.057 1.96 6.057 3.65v.113c0 1.778-2.33 3.115-5.416 3.115a12.398 12.398 0 0 1-7.711-2.845 2.164 2.164 0 0 0-3.058.34l-.62.798a2.064 2.064 0 0 0 .324 2.872 17.83 17.83 0 0 0 11.03 3.963c6.244 0 10.777-3.485 10.777-8.287v-.092c-.014-5.927-6.13-7.566-10.176-8.65z"/></g><path fill="#0086F2" d="M78.509 39.37c-2.479 0-5.18-.777-7.437-2.331-.481-.259-.851-.814-.851-1.554 0-.999.777-1.813 1.813-1.813.37 0 .703.111.962.259 1.887 1.258 3.848 1.887 5.624 1.887 1.924 0 3.034-.814 3.034-2.109v-.074c0-1.517-2.072-2.035-4.366-2.738-2.886-.814-6.105-1.998-6.105-5.735v-.074c0-3.7 3.071-5.957 6.956-5.957 2.072 0 4.255.592 6.142 1.591.629.333 1.073.925 1.073 1.702 0 1.036-.814 1.813-1.85 1.813-.37 0-.592-.074-.888-.222-1.591-.814-3.219-1.332-4.588-1.332-1.739 0-2.738.814-2.738 1.924v.074c0 1.443 2.109 2.035 4.403 2.775 2.849.888 6.068 2.183 6.068 5.698v.074c0 4.107-3.182 6.142-7.252 6.142zm10.575-2.405v-22.94c0-1.221.962-2.22 2.22-2.22 1.258 0 2.257.999 2.257 2.22v22.94c0 1.258-.999 2.22-2.257 2.22a2.203 2.203 0 0 1-2.22-2.22zm8.725-22.533v-.222c0-1.332 1.11-2.183 2.553-2.183 1.443 0 2.553.851 2.553 2.183v.222c0 1.332-1.11 2.22-2.553 2.22-1.443 0-2.553-.888-2.553-2.22zm.333 22.533V21.499c0-1.258.962-2.257 2.22-2.257 1.258 0 2.257.999 2.257 2.257v15.466c0 1.258-1 2.22-2.257 2.22a2.203 2.203 0 0 1-2.22-2.22zm8.799 0V21.499c0-1.258.962-2.257 2.22-2.257 1.258 0 2.257.999 2.257 2.257v.962c1.258-1.813 3.07-3.404 6.105-3.404 4.403 0 6.956 2.96 6.956 7.474v10.434c0 1.258-.962 2.22-2.22 2.22-1.258 0-2.257-.962-2.257-2.22V27.9c0-3.034-1.517-4.773-4.181-4.773-2.59 0-4.403 1.813-4.403 4.847v8.991c0 1.258-1 2.22-2.257 2.22a2.203 2.203 0 0 1-2.22-2.22zm21.416 0v-22.94c0-1.221.962-2.22 2.22-2.22 1.258 0 2.257.999 2.257 2.22v14.43l8.399-8.251c.592-.592 1.147-.962 1.924-.962 1.184 0 1.96.962 1.96 2.035 0 .74-.37 1.295-.998 1.887l-5.18 4.773 5.92 7.733c.407.555.592.962.592 1.48 0 1.221-.962 2.035-2.11 2.035-.887 0-1.405-.296-1.96-.999l-5.587-7.437-2.96 2.812v3.404c0 1.258-1 2.22-2.257 2.22a2.203 2.203 0 0 1-2.22-2.22z"/></g></svg>
