<svg xmlns="http://www.w3.org/2000/svg" width="20" height="20" viewBox="0 0 20 20">
  <g fill="#007BFF">
    <path d="M9.999,0.944 C5.006,0.944 0.943,5.007 0.943,10.001 C0.943,14.994 5.006,19.057 9.999,19.057 C14.994,19.057 19.057,14.994 19.057,10.001 C19.057,5.007 14.993,0.944 9.999,0.944 Z M9.999,18.385 C5.376,18.385 1.615,14.624 1.615,10.001 C1.615,5.377 5.376,1.615 9.999,1.615 C14.624,1.615 18.386,5.377 18.386,10.001 C18.385,14.624 14.623,18.385 9.999,18.385 Z"/>
    <path d="M8.447,5.128 C8.318,5 8.101,5 7.972,5.128 C7.909,5.191 7.874,5.275 7.874,5.365 C7.874,5.454 7.909,5.539 7.972,5.603 L12.446,10.077 L7.973,14.55 C7.91,14.613 7.874,14.698 7.874,14.789 C7.874,14.878 7.909,14.962 7.971,15.025 C8.034,15.089 8.119,15.124 8.21,15.124 C8.3,15.124 8.384,15.089 8.447,15.026 L13.158,10.314 C13.221,10.251 13.257,10.166 13.257,10.076 C13.257,9.986 13.222,9.901 13.158,9.839 L8.447,5.128 Z"/>
  </g>
</svg>
