<svg xmlns="http://www.w3.org/2000/svg" width="20" height="20" viewBox="0 0 20 20">
  <g fill="#E93E3E">
    <path d="M9.999,0.944 C5.006,0.944 0.943,5.007 0.943,10.001 C0.943,14.994 5.006,19.057 9.999,19.057 C14.994,19.057 19.057,14.994 19.057,10.001 C19.057,5.007 14.993,0.944 9.999,0.944 Z M9.999,18.385 C5.376,18.385 1.615,14.624 1.615,10.001 C1.615,5.377 5.376,1.615 9.999,1.615 C14.624,1.615 18.386,5.377 18.386,10.001 C18.385,14.624 14.623,18.385 9.999,18.385 Z"/>
    <path d="M6.69800223,13.8886166 C6.74274911,13.9333634 6.80116866,13.9557369 6.8595882,13.9557369 C6.91842207,13.9557369 6.97684161,13.9333634 7.02158849,13.8886166 L10.2930829,10.6129789 L13.5645774,13.8886166 C13.6093242,13.9333634 13.6677438,13.9557369 13.7265777,13.9557369 C13.7849972,13.9557369 13.8438311,13.9333634 13.8881636,13.8886166 C13.9776574,13.7991228 13.9776574,13.6545241 13.8885779,13.5650303 L10.6208124,10.2931215 L13.8885779,7.02121278 C13.9780717,6.93171901 13.9780717,6.78670596 13.8881636,6.69762651 C13.7986699,6.60813275 13.6536568,6.60813275 13.5645774,6.69804084 L10.2930829,9.97326418 L7.02158849,6.69804084 C6.93209472,6.60854707 6.78708167,6.60854707 6.69800223,6.69762651 C6.60809414,6.78712028 6.60809414,6.93213333 6.6975879,7.02121278 L9.96535343,10.2931215 L6.6975879,13.5650303 C6.60809414,13.6545241 6.60809414,13.7995371 6.69800223,13.8886166 Z"/>
  </g>
</svg>
