<svg xmlns="http://www.w3.org/2000/svg" width="139" height="35" viewBox="0 0 139 35">
  <g fill="#007BFF" fill-rule="evenodd">
    <path d="M7.7,13 C5,12.3 4,11.7 4,11 L4,10.8 C4,9.8 5.4,9 7.2,9 C8.5,9 10,9.5 11.2,10.4 C11.4,10.6 11.8,10.7 12.2,10.6 C12.5,10.6 12.8,10.3 13,10 L13.3,9.5 C13.7,8.9 13.6,8.1 13,7.7 C11.3,6.5 9.2,5.7 7.2,5.7 C3.5,5.8 0.8,8 0.8,11 C0.8,14.4 4.1,15.4 6.8,16.2 L7,16.2 C9.6,17 10.7,17.4 10.7,18.5 C10.7,19.7 9.2,20.5 7.4,20.5 C5.7,20.5 4,19.9 2.7,18.7 C2.4,18.5 2,18.4 1.7,18.4 C1.3,18.4 1,18.7 0.7,18.9 L0.4,19.3 C-7.21644966e-16,19.9 0.1,20.7 0.6,21.3 C2.4,22.7 5,23.7 7.3,23.7 C11.1,23.7 13.9,21.5 13.9,18.4 C13.9,14.6 10.1,13.6 7.6,12.9 L7.7,13 Z M19,13 C19.6,10.6 21.5,9 24,9 C26.5,9 28,11 28.5,13 L19,13 Z M24,5.7 C19.2,5.7 15.6,9.7 15.6,14.7 C15.6,20 19.2,23.7 24.2,23.7 C26.9,23.7 29.5,22.4 31.2,20.1 C31.6,19.6 31.4,18.7 30.8,18.3 L30.4,18 C29.8,17.4 29,17.6 28.4,18.2 C27.7,19.4 26.1,20.6 24.2,20.6 C21.6,20.6 19.6,18.9 19,16.3 L30.6,16.3 C31.3,16.3 31.9,15.7 31.9,14.9 L31.9,14.7 C31.9,10.2 28.9,5.7 23.9,5.7 L24,5.7 Z M36.2,0.2 L35.6,0.2 C34.8,0.2 34.3,0.8 34.3,1.5 L34.3,22.5 C34.3,23.1 34.8,23.7 35.6,23.7 L36.2,23.7 C36.9,23.7 37.5,23.1 37.5,22.4 L37.5,1.4 C37.5,0.8 36.9,0.2 36.2,0.2 Z M43.2,13.2 C43.9,10.6 45.8,8.9 48.2,8.9 C50.8,8.9 52.2,10.9 52.7,12.9 L43.3,12.9 L43.2,13.2 Z M48.2,5.7 C43.5,5.7 39.9,9.7 39.9,14.7 C39.9,20 43.5,23.7 48.5,23.7 C51.2,23.7 53.8,22.4 55.5,20.1 C55.9,19.6 55.7,18.7 55.1,18.3 L54.7,18 C54.1,17.4 53.3,17.6 52.7,18.2 C52,19.4 50.4,20.6 48.5,20.6 C45.9,20.6 43.9,18.9 43.3,16.3 L55,16.3 C55.7,16.3 56.3,15.7 56.3,14.9 L56.3,14.7 C56.3,10.2 53.5,5.7 48.3,5.7 L48.2,5.7 Z M65.7,13 C62.9,12.3 62,11.7 62,11 L62,10.8 C62,9.8 63.3,9 65,9 C66.4,9 68,9.5 69,10.4 C69.4,10.6 69.7,10.7 70,10.6 C70.4,10.6 70.7,10.3 71,10 L71.3,9.5 C71.7,8.9 71.5,8.1 70.9,7.7 C69.1,6.5 66.9,5.7 64.9,5.7 C61.3,5.7 58.6,7.9 58.6,10.9 C58.6,14.3 62,15.3 64.6,16.1 L64.8,16.1 C67.3,16.9 68.4,17.3 68.4,18.4 C68.4,19.6 67,20.4 65.1,20.4 C63.5,20.4 61.8,19.8 60.4,18.6 C60.1,18.4 59.8,18.3 59.4,18.3 C59.1,18.3 58.8,18.6 58.4,18.8 L58.2,19.2 C57.7,19.8 57.8,20.6 58.4,21.2 C60.2,22.6 62.7,23.6 65.1,23.6 C68.9,23.6 71.7,21.4 71.7,18.3 C71.7,14.5 67.7,13.5 65.4,12.8 L65.7,13 Z M83.1,5.6 L79.1,5.6 L79.1,1.5 C79.1,0.8 78.4,0.2 77.7,0.2 L77,0.2 C76.3,0.2 75.7,0.8 75.7,1.5 L75.7,5.8 L74.7,5.8 C74,5.8 73.4,6.3 73.4,7.1 L73.4,7.7 C73.4,8.5 74,9.1 74.7,9.1 L75.7,9.1 L75.7,18.5 C75.7,21.8 77.7,23.9 80.7,23.9 C81.7,23.9 82.7,23.7 83.5,23.3 C84,23 84.3,22.6 84.3,22.1 L84.3,21.4 C84.3,21 84.1,20.4 83.7,20.4 C83.3,20 82.7,20 82.4,20.2 C81.9,20.6 81.4,20.7 80.8,20.7 C79.8,20.7 79.1,20.5 79.1,18.5 L79.1,9 L83.1,9 C83.9,9 84.5,8.4 84.5,7.6 L84.5,7 C84.5,6.3 83.9,5.8 83.2,5.8 L83.1,5.6 Z M88.9,5.8 L88.4,5.8 C87.7,5.8 87.1,6.4 87.1,7.1 L87.1,22.5 C87.1,23.2 87.7,23.8 88.4,23.8 L89,23.8 C89.8,23.8 90.4,23.2 90.4,22.5 L90.4,7 C90.4,6.4 89.8,5.8 89.1,5.8 L88.9,5.8 Z M89.3,0.2 L88.3,0.2 C87.7,0.2 87.1,0.8 87.1,1.5 L87.1,3.3 C87.1,4 87.7,4.6 88.4,4.6 L89.4,4.6 C90.1,4.6 90.6,4 90.6,3.3 L90.6,1.5 C90.6,0.8 90.1,0.2 89.3,0.2 Z" transform="translate(48 4)"/>
    <g fill-rule="nonzero" transform="translate(.226 .226)">
      <path d="M17.2093029,0.0564750165 C7.75109531,0.0564750165 0.054580723,7.7529896 0.054580723,17.2130915 C0.054580723,26.671299 7.75109531,34.3678136 17.2093029,34.3678136 C26.671299,34.3678136 34.3678136,26.671299 34.3678136,17.2130915 C34.3678136,7.7529896 26.6694047,0.0564750165 17.2093029,0.0564750165 Z M17.2093029,33.0948484 C8.45198391,33.0948484 1.32754597,25.9704104 1.32754597,17.2130915 C1.32754597,8.45387821 8.45198391,1.32754597 17.2093029,1.32754597 C25.9704104,1.32754597 33.0967427,8.45387821 33.0967427,17.2130915 C33.0948484,25.9704104 25.9685161,33.0948484 17.2093029,33.0948484 Z" transform="translate(.18 .096)"/>
      <path d="M14.4573655,21.5805526 C14.3368548,21.5805526 14.216344,21.5345541 14.124616,21.4425571 C13.9406219,21.258563 13.9406219,20.9607831 14.124616,20.776789 L20.1116866,14.7897184 C20.2956807,14.6057243 20.5934606,14.6057243 20.7774547,14.7897184 C20.9614488,14.9734435 20.9614488,15.2717614 20.7774547,15.4554865 L14.7901151,21.4425571 C14.698118,21.5345541 14.5776073,21.5805526 14.4573655,21.5805526 Z M14.7562214,25.8767069 L19.0289729,21.6036864 C19.212967,21.4196923 19.212967,21.1219124 19.0289729,20.9379183 C18.8449788,20.7539243 18.5471989,20.7539243 18.3632048,20.9379183 L14.0904533,25.2109388 C13.0607321,26.2401221 11.3856865,26.2401221 10.3559653,25.2109388 C9.85724445,24.712218 9.58259831,24.0491399 9.58259831,23.3438293 C9.58259831,22.6385186 9.85724445,21.9754405 10.3559653,21.4767197 L14.6289857,17.2034302 C14.8129798,17.0197052 14.8129798,16.7213873 14.6289857,16.5376622 C14.4449917,16.3536681 14.1472118,16.3536681 13.9632177,16.5376622 L9.69019719,20.8109517 C9.01366924,21.4874796 8.64110812,22.3867372 8.64110812,23.3438293 C8.64110812,24.3009213 9.01366924,25.2001789 9.69019719,25.8767069 C10.3885139,26.5750236 11.3057944,26.924182 12.2230748,26.924182 C13.1403552,26.924182 14.0579047,26.5747546 14.7562214,25.8767069 Z M20.938315,19.6943443 L25.2113355,15.4215928 C26.6076999,14.0249594 26.6076999,11.752202 25.2113355,10.3555686 C24.5348075,9.67904064 23.6355499,9.30647952 22.6784579,9.30647952 C21.7213658,9.30647952 20.8221082,9.67904064 20.1455803,10.3555686 L15.8725598,14.6285891 C15.6885657,14.8123142 15.6885657,15.1106321 15.8725598,15.2943571 C16.0565539,15.4783512 16.3543338,15.4783512 16.5383278,15.2943571 L20.8113483,11.0213367 C21.3100691,10.5226159 21.9731472,10.2479697 22.6784579,10.2479697 C23.3837685,10.2479697 24.0468466,10.5226159 24.5455674,11.0213367 C25.5750197,12.0510579 25.5750197,13.7263725 24.5455674,14.7558247 L20.2725469,19.0288452 C20.0885529,19.2128393 20.0885529,19.5106192 20.2725469,19.6946133 C20.364544,19.7866103 20.4847857,19.8326089 20.6052965,19.8326089 C20.7258072,19.8326089 20.846318,19.7863413 20.938315,19.6943443 Z"/>
    </g>
  </g>
</svg>
