<svg xmlns="http://www.w3.org/2000/svg" width="20" height="20" viewBox="0 0 20 20">
  <g fill="#50E65F">
    <path d="M9.999,0.944 C5.006,0.944 0.943,5.007 0.943,10.001 C0.943,14.994 5.006,19.057 9.999,19.057 C14.994,19.057 19.057,14.994 19.057,10.001 C19.057,5.007 14.993,0.944 9.999,0.944 Z M9.999,18.385 C5.376,18.385 1.615,14.624 1.615,10.001 C1.615,5.377 5.376,1.615 9.999,1.615 C14.624,1.615 18.386,5.377 18.386,10.001 C18.385,14.624 14.623,18.385 9.999,18.385 Z"/>
    <polygon points="15.166 7.155 14.782 6.771 8.45 13.102 5.221 9.871 4.836 10.256 8.45 13.872"/>
  </g>
</svg>
